<svg width="500" xmlns="http://www.w3.org/2000/svg" height="500" id="screenshot-6dd4e80c-b7c4-803a-8005-cc1460650aeb" fill="none" version="1.1"><style>/* latin-ext */
@font-face {
  font-family: &apos;Poppins&apos;;
  font-style: normal;
  font-weight: 400;
  font-display: block;
  src: url(https://design.penpot.app/internal/gfonts/font/poppins/v22/pxiEyp8kv8JHgFVrJJnecmNE.woff2) format(&apos;woff2&apos;);
  unicode-range: U+0100-02BA, U+02BD-02C5, U+02C7-02CC, U+02CE-02D7, U+02DD-02FF, U+0304, U+0308, U+0329, U+1D00-1DBF, U+1E00-1E9F, U+1EF2-1EFF, U+2020, U+20A0-20AB, U+20AD-20C0, U+2113, U+2C60-2C7F, U+A720-A7FF;
}
/* latin */
@font-face {
  font-family: &apos;Poppins&apos;;
  font-style: normal;
  font-weight: 400;
  font-display: block;
  src: url(https://design.penpot.app/internal/gfonts/font/poppins/v22/pxiEyp8kv8JHgFVrJJfecg.woff2) format(&apos;woff2&apos;);
  unicode-range: U+0000-00FF, U+0131, U+0152-0153, U+02BB-02BC, U+02C6, U+02DA, U+02DC, U+0304, U+0308, U+0329, U+2000-206F, U+20AC, U+2122, U+2191, U+2193, U+2212, U+2215, U+FEFF, U+FFFD;
}</style><g id="shape-6dd4e80c-b7c4-803a-8005-cc1460650aeb"><defs><clipPath id="frame-clip-6dd4e80c-b7c4-803a-8005-cc1460650aeb-render-1" class="frame-clip frame-clip-def"><rect rx="0" ry="0" width="500" height="500" transform="matrix(1.000000, 0.000000, 0.000000, 1.000000, 0.000000, 0.000000)"/></clipPath></defs><g clip-path="url(#frame-clip-6dd4e80c-b7c4-803a-8005-cc1460650aeb-render-1)"><g class="fills" id="fills-6dd4e80c-b7c4-803a-8005-cc1460650aeb"><rect width="500" height="500" class="frame-background" transform="matrix(1.000000, 0.000000, 0.000000, 1.000000, 0.000000, 0.000000)" style="fill: rgb(255, 255, 255); fill-opacity: 1;" ry="0" rx="0"/></g><g class="frame-children"><g id="shape-6dd4e80c-b7c4-803a-8005-cc1468ab8520"><rect rx="0" ry="0" transform="matrix(1.000000, 0.000000, 0.000000, 1.000000, 0.000000, 0.000000)" width="500" height="500" style="fill: rgb(38, 78, 134); fill-opacity: 1;" class="fills" id="fills-6dd4e80c-b7c4-803a-8005-cc1468ab8520"/></g><g id="shape-6dd4e80c-b7c4-803a-8005-cc165cccd177"><g id="shape-6dd4e80c-b7c4-803a-8005-cc1552c6631f" style="fill: rgb(0, 0, 0);"><g id="shape-6dd4e80c-b7c4-803a-8005-cc1552c7ef28"><rect width="64.167" height="36.667" x="90.487" stroke-linejoin="round" transform="matrix(0.970296, -0.241922, 0.241922, 0.970296, -61.143101, 37.606916)" style="fill: none;" ry="0" fill="none" rx="0" y="249.455" class="fills" id="fills-6dd4e80c-b7c4-803a-8005-cc1552c7ef28"/><g fill="none" stroke-linejoin="round" id="strokes-6dd4e80c-b7c4-803a-8005-cc1552c7ef28" class="strokes"><rect rx="0" ry="0" x="90.487" y="249.455" transform="matrix(0.970296, -0.241922, 0.241922, 0.970296, -61.143101, 37.606916)" width="64.167" height="36.667" style="fill: none; stroke-width: 2; stroke: rgb(255, 255, 255); stroke-opacity: 1;" class="stroke-shape"/></g></g><g id="shape-6dd4e80c-b7c4-803a-8005-cc1552c8122d"><rect width="73.333" height="18.333" x="79.251" stroke-linejoin="round" transform="matrix(0.970296, -0.241922, 0.241922, 0.970296, -54.885485, 35.204842)" style="fill: none;" ry="0" fill="none" rx="0" y="231.939" class="fills" id="fills-6dd4e80c-b7c4-803a-8005-cc1552c8122d"/><g fill="none" stroke-linejoin="round" id="strokes-6dd4e80c-b7c4-803a-8005-cc1552c8122d" class="strokes"><rect rx="0" ry="0" x="79.251" y="231.939" transform="matrix(0.970296, -0.241922, 0.241922, 0.970296, -54.885485, 35.204842)" width="73.333" height="18.333" style="fill: none; stroke-width: 2; stroke: rgb(255, 255, 255); stroke-opacity: 1;" class="stroke-shape"/></g></g><g id="shape-6dd4e80c-b7c4-803a-8005-cc1552c85745"><path d="M112.037,225.540C112.037,225.540,102.379,227.948,98.695,228.867C98.695,228.867,94.058,229.213,93.139,225.529C92.221,221.844,94.462,218.113,98.147,217.195C101.831,216.276,111.118,221.856,112.037,225.540ZZ" fill="none" stroke-linejoin="round" style="fill: none;" class="fills" id="fills-6dd4e80c-b7c4-803a-8005-cc1552c85745"/><g fill="none" stroke-linejoin="round" id="strokes-6dd4e80c-b7c4-803a-8005-cc1552c85745" class="strokes"><path d="M112.037,225.540C112.037,225.540,102.379,227.948,98.695,228.867C98.695,228.867,94.058,229.213,93.139,225.529C92.221,221.844,94.462,218.113,98.147,217.195C101.831,216.276,111.118,221.856,112.037,225.540ZZ" style="fill: none; stroke-width: 2; stroke: rgb(255, 255, 255); stroke-opacity: 1;" class="stroke-shape"/></g></g><g id="shape-6dd4e80c-b7c4-803a-8005-cc1552c85746"><path d="M112.037,225.540C112.037,225.540,121.694,223.133,125.378,222.214C125.378,222.214,129.635,220.342,128.717,216.658C127.798,212.974,124.067,210.732,120.383,211.650C116.699,212.569,111.118,221.856,112.037,225.540ZZ" fill="none" stroke-linejoin="round" style="fill: none;" class="fills" id="fills-6dd4e80c-b7c4-803a-8005-cc1552c85746"/><g fill="none" stroke-linejoin="round" id="strokes-6dd4e80c-b7c4-803a-8005-cc1552c85746" class="strokes"><path d="M112.037,225.540C112.037,225.540,121.694,223.133,125.378,222.214C125.378,222.214,129.635,220.342,128.717,216.658C127.798,212.974,124.067,210.732,120.383,211.650C116.699,212.569,111.118,221.856,112.037,225.540ZZ" style="fill: none; stroke-width: 2; stroke: rgb(255, 255, 255); stroke-opacity: 1;" class="stroke-shape"/></g></g><g id="shape-6dd4e80c-b7c4-803a-8005-cc1552c8a476"><path d="M114.809,236.658L125.897,281.130" fill="none" stroke-linejoin="round" style="fill: none;" class="fills" id="fills-6dd4e80c-b7c4-803a-8005-cc1552c8a476"/><g fill="none" stroke-linejoin="round" id="strokes-6dd4e80c-b7c4-803a-8005-cc1552c8a476" class="strokes"><path d="M114.809,236.658L125.897,281.130" style="fill: none; stroke-width: 2; stroke: rgb(255, 255, 255); stroke-opacity: 1;" class="stroke-shape"/></g></g></g><g transform="matrix(1.000000, 0.000000, 0.000000, 1.000000, 0.000000, 0.000000)" class="text-container" id="shape-6dd4e80c-b7c4-803a-8005-cc15808608ae"><defs><pattern patternUnits="userSpaceOnUse" x="162.537" y="214.402" width="285.313" height="84" id="fill-0-render-11-0"><rect width="285.313" height="84" style="fill: rgb(255, 255, 255); fill-opacity: 1;"/></pattern></defs><text x="162.537" y="292.402" dominant-baseline="ideographic" textLength="285.313" lengthAdjust="spacingAndGlyphs" style="text-transform: none; font-family: Poppins; letter-spacing: normal; font-style: normal; font-weight: 400; white-space: pre; font-size: 60px; text-decoration: none solid rgb(255, 255, 255); direction: ltr; fill: rgb(255, 255, 255); fill-opacity: 1;" class="fills" id="fills-6dd4e80c-b7c4-803a-8005-cc15808608ae">Wishlister</text></g></g></g></g></g></svg>